<?xml version="1.0" encoding="utf-8"?>
<!-- Generator: Adobe Illustrator 22.1.0, SVG Export Plug-In . SVG Version: 6.00 Build 0)  -->
<svg version="1.1" id="Layer_1" xmlns="http://www.w3.org/2000/svg" xmlns:xlink="http://www.w3.org/1999/xlink" x="0px" y="0px"
	 viewBox="0 0 176 176" style="enable-background:new 0 0 176 176;" xml:space="preserve">
<style type="text/css">
	.st0{fill:none;}
	.st1{fill:#757575;}
</style>
<rect class="st0" width="176" height="176"/>
<g>
	<path class="st1" d="M101.3,88L117,60.8l7.7,27.2l-7.6,27.2L101.3,88L101.3,88z M93.7,92.4l15.8,27.2l-27.4-7L62.2,92.4H93.7
		L93.7,92.4z M109.4,56.4L93.7,83.6H62.2L82,63.4L109.4,56.4L109.4,56.4z M131.9,78.7L122.3,43l-35.9,9.6l-5.3,9.3l-10.8-0.1
		L44.1,88l26.3,26.2l0,0l10.8-0.1l5.3,9.3l35.8,9.6l9.6-35.7l-5.5-9.3L131.9,78.7L131.9,78.7z"/>
</g>
</svg>
